<svg xmlns="http://www.w3.org/2000/svg" xmlns:xlink="http://www.w3.org/1999/xlink" version="1.1" width="256" height="256" viewBox="0 0 256 256" xml:space="preserve">

<defs>
</defs>
<g style="stroke: none; stroke-width: 0; stroke-dasharray: none; stroke-linecap: butt; stroke-linejoin: miter; stroke-miterlimit: 10; fill: none; fill-rule: nonzero; opacity: 1;" transform="translate(1.4065934065934016 1.4065934065934016) scale(2.81 2.81)" >
	<path d="M 44.913 26.682 H 15.231 c -8.28 0 -15.002 -3.611 -15.211 -11.841 C 0.016 14.972 0 15.099 0 15.231 v 31.303 c 8.265 10.233 20.908 16.784 35.087 16.784 h 0.682 c 8.28 0 12.002 3.611 12.211 11.841 c 0.003 -0.131 0.02 -0.258 0.02 -0.39 C 48 83.181 44.181 90 35.769 90 h 39 C 83.181 90 90 83.181 90 74.769 C 90 42.732 69.814 26.682 44.913 26.682 z" style="stroke: none; stroke-width: 1; stroke-dasharray: none; stroke-linecap: butt; stroke-linejoin: miter; stroke-miterlimit: 10; fill: rgb(229,0,151); fill-rule: nonzero; opacity: 1;" transform=" matrix(1 0 0 1 0 0) " stroke-linecap="round" />
	<path d="M 90 74.769 L 90 74.769 c 0 -24.901 -20.186 -45.087 -45.087 -45.087 H 15.231 c -8.28 0 -15.002 -6.611 -15.211 -14.841 C 0.016 14.972 0 15.099 0 15.231 C 0 6.819 6.819 0 15.231 0 h 59.538 C 83.181 0 90 6.819 90 15.231 V 74.769" style="stroke: none; stroke-width: 1; stroke-dasharray: none; stroke-linecap: butt; stroke-linejoin: miter; stroke-miterlimit: 10; fill: rgb(248,0,164); fill-rule: nonzero; opacity: 1;" transform=" matrix(1 0 0 1 0 0) " stroke-linecap="round" />
	<path d="M 0 74.769 V 43.534 c 8.265 10.233 20.908 16.784 35.087 16.784 h 0.682 c 8.28 0 15.002 6.611 15.211 14.841 c 0.003 -0.131 0.02 -0.258 0.02 -0.39 C 51 83.181 44.181 90 35.769 90 H 15.231 C 6.819 90 0 83.181 0 74.769 z" style="stroke: none; stroke-width: 1; stroke-dasharray: none; stroke-linecap: butt; stroke-linejoin: miter; stroke-miterlimit: 10; fill: rgb(210,0,139); fill-rule: nonzero; opacity: 1;" transform=" matrix(1 0 0 1 0 0) " stroke-linecap="round" />
	<path d="M 55.853 18.5 H 34.147 c -8.642 0 -15.647 7.005 -15.647 15.647 v 21.705 c 0 8.642 7.005 15.647 15.647 15.647 h 21.705 c 8.642 0 15.647 -7.005 15.647 -15.647 V 34.147 C 71.5 25.505 64.495 18.5 55.853 18.5 z M 45 57.636 c -6.979 0 -12.636 -5.657 -12.636 -12.636 c 0 -6.979 5.657 -12.636 12.636 -12.636 c 6.979 0 12.636 5.657 12.636 12.636 C 57.636 51.979 51.979 57.636 45 57.636 z M 56.403 30.854 c 0 -1.523 1.235 -2.758 2.758 -2.758 c 1.523 0 2.758 1.235 2.758 2.758 c 0 1.523 -1.234 2.758 -2.758 2.758 C 57.638 33.612 56.403 32.377 56.403 30.854 z" style="stroke: none; stroke-width: 1; stroke-dasharray: none; stroke-linecap: butt; stroke-linejoin: miter; stroke-miterlimit: 10; fill: rgb(255,255,255); fill-rule: nonzero; opacity: 1;" transform=" matrix(1 0 0 1 0 0) " stroke-linecap="round" />
</g>
</svg>