<svg xmlns="http://www.w3.org/2000/svg" xmlns:xlink="http://www.w3.org/1999/xlink" version="1.1" width="256" height="256" viewBox="0 0 256 256" xml:space="preserve">

<defs>
</defs>
<g style="stroke: none; stroke-width: 0; stroke-dasharray: none; stroke-linecap: butt; stroke-linejoin: miter; stroke-miterlimit: 10; fill: none; fill-rule: nonzero; opacity: 1;" transform="translate(1.4065934065934016 1.4065934065934016) scale(2.81 2.81)" >
	<path d="M 44.913 26.682 H 15.231 c -8.28 0 -15.002 -3.611 -15.211 -11.841 C 0.016 14.972 0 15.099 0 15.231 v 31.303 c 8.265 10.233 20.908 16.784 35.087 16.784 h 0.682 c 8.28 0 12.002 3.611 12.211 11.841 c 0.003 -0.131 0.02 -0.258 0.02 -0.39 C 48 83.181 44.181 90 35.769 90 h 39 C 83.181 90 90 83.181 90 74.769 C 90 42.732 69.814 26.682 44.913 26.682 z" style="stroke: none; stroke-width: 1; stroke-dasharray: none; stroke-linecap: butt; stroke-linejoin: miter; stroke-miterlimit: 10; fill: rgb(8,213,208); fill-rule: nonzero; opacity: 1;" transform=" matrix(1 0 0 1 0 0) " stroke-linecap="round" />
	<path d="M 90 74.769 L 90 74.769 c 0 -24.901 -20.186 -45.087 -45.087 -45.087 H 15.231 c -8.28 0 -15.002 -6.611 -15.211 -14.841 C 0.016 14.972 0 15.099 0 15.231 C 0 6.819 6.819 0 15.231 0 h 59.538 C 83.181 0 90 6.819 90 15.231 V 74.769" style="stroke: none; stroke-width: 1; stroke-dasharray: none; stroke-linecap: butt; stroke-linejoin: miter; stroke-miterlimit: 10; fill: rgb(8,225,220); fill-rule: nonzero; opacity: 1;" transform=" matrix(1 0 0 1 0 0) " stroke-linecap="round" />
	<path d="M 0 74.769 V 43.534 c 8.265 10.233 20.908 16.784 35.087 16.784 h 0.682 c 8.28 0 15.002 6.611 15.211 14.841 c 0.003 -0.131 0.02 -0.258 0.02 -0.39 C 51 83.181 44.181 90 35.769 90 H 15.231 C 6.819 90 0 83.181 0 74.769 z" style="stroke: none; stroke-width: 1; stroke-dasharray: none; stroke-linecap: butt; stroke-linejoin: miter; stroke-miterlimit: 10; fill: rgb(7,201,196); fill-rule: nonzero; opacity: 1;" transform=" matrix(1 0 0 1 0 0) " stroke-linecap="round" />
	<path d="M 23.322 11.072 c -1.017 0 -1.956 -0.337 -2.709 -0.905 c -0.864 -0.652 -1.485 -1.607 -1.704 -2.709 c -0.055 -0.272 -0.084 -0.553 -0.087 -0.841 h -2.905 v 7.939 l -0.004 4.348 c 0 1.163 -0.757 2.148 -1.806 2.495 c -0.304 0.101 -0.633 0.148 -0.976 0.129 c -0.437 -0.024 -0.847 -0.156 -1.203 -0.369 c -0.758 -0.453 -1.271 -1.275 -1.285 -2.216 c -0.022 -1.47 1.166 -2.668 2.635 -2.668 c 0.29 0 0.568 0.047 0.829 0.133 v -2.17 v -0.78 c -0.275 -0.041 -0.555 -0.062 -0.838 -0.062 c -1.608 0 -3.111 0.668 -4.186 1.872 c -0.812 0.91 -1.3 2.071 -1.375 3.288 c -0.098 1.599 0.487 3.119 1.621 4.241 c 0.167 0.165 0.342 0.318 0.525 0.458 c 0.973 0.748 2.162 1.154 3.415 1.154 c 0.283 0 0.563 -0.021 0.838 -0.062 c 1.17 -0.173 2.25 -0.709 3.102 -1.551 c 1.047 -1.035 1.626 -2.409 1.632 -3.871 l -0.015 -6.493 c 0.499 0.385 1.046 0.704 1.632 0.952 c 0.912 0.385 1.878 0.579 2.873 0.579 v -2.11 v -0.783 C 23.331 11.072 23.323 11.072 23.322 11.072 L 23.322 11.072 z" style="stroke: none; stroke-width: 1; stroke-dasharray: none; stroke-linecap: butt; stroke-linejoin: miter; stroke-miterlimit: 10; fill: rgb(255,255,255); fill-rule: nonzero; opacity: 1;" transform=" matrix(2.81 0 0 2.81 1.4065934065934016 1.4065934065934016) " stroke-linecap="round" />
</g>
</svg>